<svg width="24" height="24" viewBox="0 0 24 24" fill="none"
  xmlns="http://www.w3.org/2000/svg">
  <mask id="path-1-inside-1_333_121" fill="white">
    <path fill-rule="evenodd" clip-rule="evenodd" d="M19 3H5V13H10L12.0008 15.0008L14.0015 13H19V3Z"/>
  </mask>
  <path d="M5 3V2C4.44772 2 4 2.44772 4 3H5ZM19 3H20C20 2.44772 19.5523 2 19 2V3ZM5 13H4C4 13.5523 4.44772 14 5 14V13ZM10 13L10.7071 12.2929C10.5196 12.1054 10.2652 12 10 12V13ZM12.0008 15.0008L11.2936 15.7079C11.6842 16.0984 12.3173 16.0984 12.7079 15.7079L12.0008 15.0008ZM14.0015 13V12C13.7363 12 13.4819 12.1054 13.2944 12.2929L14.0015 13ZM19 13V14C19.5523 14 20 13.5523 20 13H19ZM5 4H19V2H5V4ZM6 13V3H4V13H6ZM10 12H5V14H10V12ZM12.7079 14.2936L10.7071 12.2929L9.29289 13.7071L11.2936 15.7079L12.7079 14.2936ZM13.2944 12.2929L11.2936 14.2936L12.7079 15.7079L14.7086 13.7071L13.2944 12.2929ZM19 12H14.0015V14H19V12ZM18 3V13H20V3H18Z" fill="#161616" mask="url(#path-1-inside-1_333_121)"/>
  <circle cx="12" cy="19" r="1.5" stroke="#161616" stroke-linecap="round" stroke-linejoin="round"/>
  <path d="M8.5 8H15.5" stroke="black" stroke-linecap="round" stroke-linejoin="round"/>
</svg>
