<svg width="24" height="24" viewBox="0 0 24 24" fill="none" xmlns="http://www.w3.org/2000/svg">
  <path d="M11.5 12C11.5 12.6336 11.6581 13.2213 11.8403 13.7266C11.9317 13.9799 12.0312 14.2181 12.1225 14.4323C12.1378 14.4684 12.1528 14.5035 12.1675 14.5378C12.2419 14.7122 12.3073 14.8651 12.3613 15.0066C12.4265 15.1776 12.4629 15.3012 12.4763 15.3911C12.4796 15.4127 12.4811 15.4295 12.4816 15.4421C12.4776 15.4437 12.473 15.4454 12.4679 15.4472C12.3931 15.4736 12.2501 15.5 12 15.5C10.067 15.5 8.5 13.933 8.5 12C8.5 10.067 10.067 8.5 12 8.5C12.2501 8.5 12.3931 8.52638 12.4679 8.55278C12.473 8.55458 12.4776 8.55629 12.4816 8.55789C12.4811 8.57047 12.4796 8.58725 12.4763 8.60894C12.4629 8.69876 12.4265 8.82242 12.3613 8.99336C12.3073 9.13494 12.2419 9.28785 12.1675 9.46222C12.1528 9.49652 12.1378 9.53165 12.1225 9.56768C12.0312 9.78193 11.9317 10.0201 11.8403 10.2734C11.6581 10.7787 11.5 11.3664 11.5 12ZM12.5095 15.4285C12.5095 15.4285 12.5092 15.4288 12.5084 15.4293L12.5095 15.4285ZM12.5095 8.57147C12.5095 8.57148 12.5091 8.57122 12.5084 8.57067L12.5095 8.57147Z" stroke="#F8F8F8"/>
</svg>