{
    "asset" : {
        "generator" : "Khronos glTF Blender I/O v1.2.75",
        "version" : "2.0"
    },
    "scene" : 0,
    "scenes" : [
        {
            "name" : "Scene",
            "nodes" : [
                0,
                1,
                2,
                19
            ]
        }
    ],
    "nodes" : [
        {
            "name" : "Light",
            "rotation" : [
                0.16907551884651184,
                0.7558804154396057,
                -0.2721710503101349,
                0.5709475874900818
            ],
            "translation" : [
                3,
                4,
                0
            ]
        },
        {
            "name" : "Camera",
            "translation" : [
                -0.09897448122501373,
                7.61115837097168,
                -0.16519834101200104
            ]
        },
        {
            "mesh" : 0,
            "name" : "Floor",
            "scale" : [
                0.5,
                1,
                0.5
            ]
        },
        {
            "mesh" : 1,
            "name" : "Key@0-c0",
            "translation" : [
                -0.7361710071563721,
                0.20000000298023224,
                0.47799086570739746
            ]
        },
        {
            "mesh" : 2,
            "name" : "Key@1-c#0",
            "translation" : [
                -0.5961709022521973,
                0.20000000298023224,
                0.47799086570739746
            ]
        },
        {
            "mesh" : 2,
            "name" : "Key@10-a#0",
            "translation" : [
                0.49030181765556335,
                0.20000000298023224,
                0.47799086570739746
            ]
        },
        {
            "mesh" : 3,
            "name" : "Key@11-b0",
            "translation" : [
                0.009199840947985649,
                0,
                0.8127847909927368
            ]
        },
        {
            "mesh" : 1,
            "name" : "Key@12-c1",
            "translation" : [
                0.7297042608261108,
                0.20000000298023224,
                0.47799086570739746
            ]
        },
        {
            "mesh" : 4,
            "name" : "Key@13-c#1",
            "translation" : [
                0.8554310202598572,
                0.20000000298023224,
                0.47799086570739746
            ]
        },
        {
            "mesh" : 5,
            "name" : "Key@2-d0",
            "translation" : [
                -0.5256466865539551,
                0.20000000298023224,
                0.47799086570739746
            ]
        },
        {
            "mesh" : 2,
            "name" : "Key@3-d#0",
            "translation" : [
                -0.3463490307331085,
                0.20000000298023224,
                0.47799086570739746
            ]
        },
        {
            "mesh" : 6,
            "name" : "Key@4-e0",
            "translation" : [
                -1.4903159141540527,
                0,
                0.8127847909927368
            ]
        },
        {
            "mesh" : 1,
            "name" : "Key@5-f0",
            "translation" : [
                -0.10726882517337799,
                0.20000000298023224,
                0.47799086570739746
            ]
        },
        {
            "mesh" : 2,
            "name" : "Key@6-f#0",
            "translation" : [
                0.03551177680492401,
                0.20000000298023224,
                0.47799086570739746
            ]
        },
        {
            "mesh" : 5,
            "name" : "Key@7-g0",
            "translation" : [
                0.10124586522579193,
                0.20000000298023224,
                0.47799086570739746
            ]
        },
        {
            "mesh" : 2,
            "name" : "Key@8-g#0",
            "translation" : [
                0.2572484314441681,
                0.20000000298023224,
                0.47799086570739746
            ]
        },
        {
            "mesh" : 5,
            "name" : "Key@9-a0",
            "translation" : [
                0.31016549468040466,
                0.20000000298023224,
                0.47799086570739746
            ]
        },
        {
            "mesh" : 7,
            "name" : "Cube",
            "rotation" : [
                -0.08870000392198563,
                0,
                0,
                0.9960584044456482
            ],
            "scale" : [
                -0.09250307083129883,
                -0.5345838069915771,
                -0.4952913820743561
            ],
            "translation" : [
                0.0140838623046875,
                -0.5489740371704102,
                0.2863473892211914
            ]
        },
        {
            "children" : [
                17
            ],
            "mesh" : 8,
            "name" : "KnobFilter",
            "scale" : [
                -0.10819967091083527,
                -0.1318875551223755,
                -0.10819967091083527
            ],
            "translation" : [
                -0.6372373104095459,
                0.28948941826820374,
                0.016361773014068604
            ]
        },
        {
            "children" : [
                3,
                4,
                5,
                6,
                7,
                8,
                9,
                10,
                11,
                12,
                13,
                14,
                15,
                16,
                18
            ],
            "mesh" : 9,
            "name" : "cabinet",
            "translation" : [
                -0.0071031879633665085,
                0,
                -0.5950983762741089
            ]
        }
    ],
    "materials" : [
        {
            "doubleSided" : true,
            "emissiveFactor" : [
                0,
                0,
                0
            ],
            "name" : "planeMaterial",
            "pbrMetallicRoughness" : {
                "baseColorTexture" : {
                    "index" : 0,
                    "texCoord" : 0
                },
                "metallicFactor" : 0,
                "roughnessFactor" : 0.5
            }
        },
        {
            "doubleSided" : true,
            "emissiveFactor" : [
                0,
                0,
                0
            ],
            "name" : "Bar_White.003",
            "pbrMetallicRoughness" : {
                "baseColorFactor" : [
                    1,
                    1,
                    1,
                    1
                ],
                "metallicFactor" : 0.16070380806922913,
                "roughnessFactor" : 0.6912442445755005
            }
        },
        {
            "doubleSided" : true,
            "emissiveFactor" : [
                0,
                0,
                0
            ],
            "name" : "Bar_Black.001",
            "pbrMetallicRoughness" : {
                "baseColorFactor" : [
                    0.002837695414200425,
                    0.002837695414200425,
                    0.002837695414200425,
                    1
                ],
                "metallicFactor" : 0,
                "roughnessFactor" : 0.7488477230072021
            }
        },
        {
            "doubleSided" : true,
            "emissiveFactor" : [
                0,
                0,
                0
            ],
            "name" : "Bar_White.002",
            "pbrMetallicRoughness" : {
                "baseColorFactor" : [
                    1,
                    1,
                    1,
                    1
                ],
                "metallicFactor" : 0.16070380806922913,
                "roughnessFactor" : 0.6912442445755005
            }
        },
        {
            "doubleSided" : true,
            "emissiveFactor" : [
                0,
                0,
                0
            ],
            "name" : "BlackGlossyCabinet",
            "pbrMetallicRoughness" : {
                "baseColorFactor" : [
                    0.007627659011632204,
                    0.007627659011632204,
                    0.007627659011632204,
                    1
                ],
                "metallicFactor" : 0.19354838132858276,
                "roughnessFactor" : 0.9792627096176147
            }
        },
        {
            "doubleSided" : true,
            "emissiveFactor" : [
                0,
                0,
                0
            ],
            "name" : "Knob",
            "pbrMetallicRoughness" : {
                "baseColorFactor" : [
                    0.8000000715255737,
                    0.04937536269426346,
                    0.04077600687742233,
                    1
                ],
                "metallicFactor" : 0,
                "roughnessFactor" : 0.8963133692741394
            }
        }
    ],
    "meshes" : [
        {
            "name" : "Plane",
            "primitives" : [
                {
                    "attributes" : {
                        "POSITION" : 0,
                        "NORMAL" : 1
                    },
                    "indices" : 2,
                    "material" : 0
                }
            ]
        },
        {
            "name" : "Cube.011",
            "primitives" : [
                {
                    "attributes" : {
                        "POSITION" : 3,
                        "NORMAL" : 4
                    },
                    "indices" : 5,
                    "material" : 1
                }
            ]
        },
        {
            "name" : "Cube.006",
            "primitives" : [
                {
                    "attributes" : {
                        "POSITION" : 6,
                        "NORMAL" : 7
                    },
                    "indices" : 8,
                    "material" : 2
                }
            ]
        },
        {
            "name" : "Cube.009",
            "primitives" : [
                {
                    "attributes" : {
                        "POSITION" : 9,
                        "NORMAL" : 10
                    },
                    "indices" : 11,
                    "material" : 1
                }
            ]
        },
        {
            "name" : "Cube.014",
            "primitives" : [
                {
                    "attributes" : {
                        "POSITION" : 12,
                        "NORMAL" : 13
                    },
                    "indices" : 8,
                    "material" : 2
                }
            ]
        },
        {
            "name" : "Cube.008",
            "primitives" : [
                {
                    "attributes" : {
                        "POSITION" : 14,
                        "NORMAL" : 15
                    },
                    "indices" : 16,
                    "material" : 1
                }
            ]
        },
        {
            "name" : "Cube.010",
            "primitives" : [
                {
                    "attributes" : {
                        "POSITION" : 17,
                        "NORMAL" : 18
                    },
                    "indices" : 19,
                    "material" : 3
                }
            ]
        },
        {
            "name" : "Cube",
            "primitives" : [
                {
                    "attributes" : {
                        "POSITION" : 20,
                        "NORMAL" : 21
                    },
                    "indices" : 22,
                    "material" : 4
                }
            ]
        },
        {
            "name" : "Cylinder.001",
            "primitives" : [
                {
                    "attributes" : {
                        "POSITION" : 23,
                        "NORMAL" : 24
                    },
                    "indices" : 25,
                    "material" : 5
                }
            ]
        },
        {
            "name" : "Cube.007",
            "primitives" : [
                {
                    "attributes" : {
                        "POSITION" : 26,
                        "NORMAL" : 27
                    },
                    "indices" : 28,
                    "material" : 4
                }
            ]
        }
    ],
    "textures" : [
        {
            "source" : 0
        }
    ],
    "images" : [
        {
            "bufferView" : 3,
            "mimeType" : "image/png",
            "name" : "plane-bake-ao"
        }
    ],
    "accessors" : [
        {
            "bufferView" : 0,
            "componentType" : 5126,
            "count" : 4,
            "max" : [
                6,
                0,
                6
            ],
            "min" : [
                -6,
                0,
                -6
            ],
            "type" : "VEC3"
        },
        {
            "bufferView" : 1,
            "componentType" : 5126,
            "count" : 4,
            "type" : "VEC3"
        },
        {
            "bufferView" : 2,
            "componentType" : 5123,
            "count" : 6,
            "type" : "SCALAR"
        },
        {
            "bufferView" : 4,
            "componentType" : 5126,
            "count" : 414,
            "max" : [
                0.10000002384185791,
                0.09999997913837433,
                0.7999999523162842
            ],
            "min" : [
                -0.10000002384185791,
                -0.1000000610947609,
                2.9802322387695312e-08
            ],
            "type" : "VEC3"
        },
        {
            "bufferView" : 5,
            "componentType" : 5126,
            "count" : 414,
            "type" : "VEC3"
        },
        {
            "bufferView" : 6,
            "componentType" : 5123,
            "count" : 720,
            "type" : "SCALAR"
        },
        {
            "bufferView" : 7,
            "componentType" : 5126,
            "count" : 96,
            "max" : [
                0.0019999826326966286,
                0.19999997317790985,
                0.46871984004974365
            ],
            "min" : [
                -0.10200002044439316,
                -0.10000000894069672,
                0
            ],
            "type" : "VEC3"
        },
        {
            "bufferView" : 8,
            "componentType" : 5126,
            "count" : 96,
            "type" : "VEC3"
        },
        {
            "bufferView" : 9,
            "componentType" : 5123,
            "count" : 132,
            "type" : "SCALAR"
        },
        {
            "bufferView" : 10,
            "componentType" : 5126,
            "count" : 419,
            "max" : [
                0.6104528903961182,
                0.29999998211860657,
                0.4652060270309448
            ],
            "min" : [
                0.41045284271240234,
                0.09999994188547134,
                -0.33479389548301697
            ],
            "type" : "VEC3"
        },
        {
            "bufferView" : 11,
            "componentType" : 5126,
            "count" : 419,
            "type" : "VEC3"
        },
        {
            "bufferView" : 12,
            "componentType" : 5123,
            "count" : 720,
            "type" : "SCALAR"
        },
        {
            "bufferView" : 13,
            "componentType" : 5126,
            "count" : 96,
            "max" : [
                0.0019999826326966286,
                0.19999997317790985,
                0.46871984004974365
            ],
            "min" : [
                -0.10200002044439316,
                -0.10000000894069672,
                0
            ],
            "type" : "VEC3"
        },
        {
            "bufferView" : 14,
            "componentType" : 5126,
            "count" : 96,
            "type" : "VEC3"
        },
        {
            "bufferView" : 15,
            "componentType" : 5126,
            "count" : 532,
            "max" : [
                0.10000002384185791,
                0.09999997913837433,
                0.7999999523162842
            ],
            "min" : [
                -0.10000002384185791,
                -0.1000000610947609,
                2.9802322387695312e-08
            ],
            "type" : "VEC3"
        },
        {
            "bufferView" : 16,
            "componentType" : 5126,
            "count" : 532,
            "type" : "VEC3"
        },
        {
            "bufferView" : 17,
            "componentType" : 5123,
            "count" : 912,
            "type" : "SCALAR"
        },
        {
            "bufferView" : 18,
            "componentType" : 5126,
            "count" : 424,
            "max" : [
                1.273093819618225,
                0.29999998211860657,
                0.4652060270309448
            ],
            "min" : [
                1.0730937719345093,
                0.09999994188547134,
                -0.33479389548301697
            ],
            "type" : "VEC3"
        },
        {
            "bufferView" : 19,
            "componentType" : 5126,
            "count" : 424,
            "type" : "VEC3"
        },
        {
            "bufferView" : 20,
            "componentType" : 5123,
            "count" : 720,
            "type" : "SCALAR"
        },
        {
            "bufferView" : 21,
            "componentType" : 5126,
            "count" : 24,
            "max" : [
                1,
                1,
                1
            ],
            "min" : [
                -1,
                -1,
                -1
            ],
            "type" : "VEC3"
        },
        {
            "bufferView" : 22,
            "componentType" : 5126,
            "count" : 24,
            "type" : "VEC3"
        },
        {
            "bufferView" : 23,
            "componentType" : 5123,
            "count" : 36,
            "type" : "SCALAR"
        },
        {
            "bufferView" : 24,
            "componentType" : 5126,
            "count" : 768,
            "max" : [
                0.9905927181243896,
                1,
                0.9905927181243896
            ],
            "min" : [
                -0.9905927777290344,
                -1,
                -0.9905929565429688
            ],
            "type" : "VEC3"
        },
        {
            "bufferView" : 25,
            "componentType" : 5126,
            "count" : 768,
            "type" : "VEC3"
        },
        {
            "bufferView" : 26,
            "componentType" : 5123,
            "count" : 1140,
            "type" : "SCALAR"
        },
        {
            "bufferView" : 27,
            "componentType" : 5126,
            "count" : 1046,
            "max" : [
                1.0071032047271729,
                0.30722546577453613,
                1.2950984239578247
            ],
            "min" : [
                -0.9928967952728271,
                -0.0005391836166381836,
                -0.28204411268234253
            ],
            "type" : "VEC3"
        },
        {
            "bufferView" : 28,
            "componentType" : 5126,
            "count" : 1046,
            "type" : "VEC3"
        },
        {
            "bufferView" : 29,
            "componentType" : 5123,
            "count" : 2772,
            "type" : "SCALAR"
        }
    ],
    "bufferViews" : [
        {
            "buffer" : 0,
            "byteLength" : 48,
            "byteOffset" : 0
        },
        {
            "buffer" : 0,
            "byteLength" : 48,
            "byteOffset" : 48
        },
        {
            "buffer" : 0,
            "byteLength" : 12,
            "byteOffset" : 96
        },
        {
            "buffer" : 0,
            "byteLength" : 623670,
            "byteOffset" : 108
        },
        {
            "buffer" : 0,
            "byteLength" : 4968,
            "byteOffset" : 623780
        },
        {
            "buffer" : 0,
            "byteLength" : 4968,
            "byteOffset" : 628748
        },
        {
            "buffer" : 0,
            "byteLength" : 1440,
            "byteOffset" : 633716
        },
        {
            "buffer" : 0,
            "byteLength" : 1152,
            "byteOffset" : 635156
        },
        {
            "buffer" : 0,
            "byteLength" : 1152,
            "byteOffset" : 636308
        },
        {
            "buffer" : 0,
            "byteLength" : 264,
            "byteOffset" : 637460
        },
        {
            "buffer" : 0,
            "byteLength" : 5028,
            "byteOffset" : 637724
        },
        {
            "buffer" : 0,
            "byteLength" : 5028,
            "byteOffset" : 642752
        },
        {
            "buffer" : 0,
            "byteLength" : 1440,
            "byteOffset" : 647780
        },
        {
            "buffer" : 0,
            "byteLength" : 1152,
            "byteOffset" : 649220
        },
        {
            "buffer" : 0,
            "byteLength" : 1152,
            "byteOffset" : 650372
        },
        {
            "buffer" : 0,
            "byteLength" : 6384,
            "byteOffset" : 651524
        },
        {
            "buffer" : 0,
            "byteLength" : 6384,
            "byteOffset" : 657908
        },
        {
            "buffer" : 0,
            "byteLength" : 1824,
            "byteOffset" : 664292
        },
        {
            "buffer" : 0,
            "byteLength" : 5088,
            "byteOffset" : 666116
        },
        {
            "buffer" : 0,
            "byteLength" : 5088,
            "byteOffset" : 671204
        },
        {
            "buffer" : 0,
            "byteLength" : 1440,
            "byteOffset" : 676292
        },
        {
            "buffer" : 0,
            "byteLength" : 288,
            "byteOffset" : 677732
        },
        {
            "buffer" : 0,
            "byteLength" : 288,
            "byteOffset" : 678020
        },
        {
            "buffer" : 0,
            "byteLength" : 72,
            "byteOffset" : 678308
        },
        {
            "buffer" : 0,
            "byteLength" : 9216,
            "byteOffset" : 678380
        },
        {
            "buffer" : 0,
            "byteLength" : 9216,
            "byteOffset" : 687596
        },
        {
            "buffer" : 0,
            "byteLength" : 2280,
            "byteOffset" : 696812
        },
        {
            "buffer" : 0,
            "byteLength" : 12552,
            "byteOffset" : 699092
        },
        {
            "buffer" : 0,
            "byteLength" : 12552,
            "byteOffset" : 711644
        },
        {
            "buffer" : 0,
            "byteLength" : 5544,
            "byteOffset" : 724196
        }
    ],
    "buffers" : [
        {
            "byteLength" : 729740,
            "uri" : "data:application/octet-stream;base64,"
        }
    ]
}
