<svg width="44" height="16" viewBox="0 0 44 16" fill="white" xmlns="http://www.w3.org/2000/svg">
<path d="M8.86517 3.31993C9.67317 3.31993 10.3212 3.52393 10.8092 3.93193C11.3052 4.33193 11.6452 4.85593 11.8292 5.50393L10.8092 5.70793C10.6492 5.23593 10.3972 4.86393 10.0532 4.59193C9.71717 4.31193 9.32117 4.17193 8.86517 4.17193C8.23317 4.17193 7.70917 4.43593 7.29317 4.96393C6.87717 5.49193 6.66917 6.22793 6.66917 7.17193C6.66917 8.10793 6.85317 8.85993 7.22117 9.42793C7.59717 9.99593 8.14517 10.2799 8.86517 10.2799C9.46517 10.2799 9.93717 10.1239 10.2812 9.81193C10.6332 9.49193 10.8092 9.07193 10.8092 8.55193H11.8292C11.8292 9.34393 11.5572 9.97193 11.0132 10.4359C10.4772 10.8999 9.73717 11.1319 8.79317 11.1319C7.85717 11.1319 7.09717 10.7719 6.51317 10.0519C5.93717 9.33193 5.64917 8.36793 5.64917 7.15993C5.64917 5.95193 5.94917 5.01193 6.54917 4.33993C7.14917 3.65993 7.92117 3.31993 8.86517 3.31993Z" fill="white"/>
<path d="M17.5085 9.85993C17.1165 10.6919 16.4805 11.1079 15.6005 11.1079C14.9525 11.1079 14.4285 10.9279 14.0285 10.5679C13.6365 10.2079 13.4405 9.65193 13.4405 8.89993V5.25193H14.3885V8.82793C14.3885 9.79593 14.8365 10.2799 15.7325 10.2799C16.2525 10.2799 16.6725 10.0799 16.9925 9.67993C17.3205 9.27993 17.4925 8.76793 17.5085 8.14393V5.25193H18.4565V10.9999H17.5085V9.85993Z" fill="white"/>
<path d="M23.8859 10.8319C23.1979 11.1519 22.5699 11.2199 22.0019 11.0359C21.5939 10.9079 21.3059 10.6399 21.1379 10.2319C21.0499 10.0319 21.0059 9.79193 21.0059 9.51193V5.98393H20.0819V5.26393H21.0059V3.66793H21.9419V5.26393H23.7419V5.98393H21.9419V9.49993C21.9419 10.0839 22.2139 10.3759 22.7579 10.3759C23.0539 10.3759 23.3859 10.3039 23.7539 10.1599L23.8859 10.8319Z" fill="white"/>
<path d="M27.4616 5.11993C28.2616 5.11993 28.9056 5.37993 29.3936 5.89993C29.8896 6.41993 30.1376 7.16393 30.1376 8.13193C30.1376 9.09193 29.8896 9.83193 29.3936 10.3519C28.9056 10.8719 28.2616 11.1319 27.4616 11.1319C26.6616 11.1319 26.0136 10.8719 25.5176 10.3519C25.0296 9.83193 24.7856 9.09193 24.7856 8.13193C24.7856 7.16393 25.0296 6.41993 25.5176 5.89993C26.0136 5.37993 26.6616 5.11993 27.4616 5.11993ZM29.1776 8.13193C29.1776 7.44393 29.0336 6.90793 28.7456 6.52393C28.4576 6.13193 28.0336 5.93593 27.4736 5.93593C26.9216 5.93593 26.4976 6.13193 26.2016 6.52393C25.9056 6.90793 25.7576 7.44393 25.7576 8.13193C25.7576 8.81193 25.8976 9.34793 26.1776 9.73993C26.4576 10.1239 26.8736 10.3159 27.4256 10.3159C27.9856 10.3159 28.4176 10.1239 28.7216 9.73993C29.0256 9.34793 29.1776 8.81193 29.1776 8.13193Z" fill="white"/>
<path d="M34.7324 3.63193C34.4684 3.52793 34.2604 3.47593 34.1084 3.47593C33.8284 3.47593 33.6084 3.54393 33.4484 3.67993C33.2884 3.81593 33.2084 4.05593 33.2084 4.39993V5.26393H34.3964V5.91193H33.2084V10.9999H32.2724V5.91193H31.3244V5.26393H32.2724V4.38793C32.2724 3.81993 32.4284 3.40393 32.7404 3.13993C33.0524 2.86793 33.4124 2.73193 33.8204 2.73193C34.2284 2.73193 34.5884 2.78393 34.9004 2.88793L34.7324 3.63193Z" fill="white"/>
<path d="M38.8457 3.63193C38.5817 3.52793 38.3737 3.47593 38.2217 3.47593C37.9417 3.47593 37.7217 3.54393 37.5617 3.67993C37.4017 3.81593 37.3217 4.05593 37.3217 4.39993V5.26393H38.5097V5.91193H37.3217V10.9999H36.3857V5.91193H35.4377V5.26393H36.3857V4.38793C36.3857 3.81993 36.5417 3.40393 36.8537 3.13993C37.1657 2.86793 37.5257 2.73193 37.9337 2.73193C38.3417 2.73193 38.7017 2.78393 39.0137 2.88793L38.8457 3.63193Z" fill="white"/>
</svg>
